<?xml version="1.0" encoding="UTF-8"?>
<!DOCTYPE svg PUBLIC "-//W3C//DTD SVG 1.1//EN" "http://www.w3.org/Graphics/SVG/1.1/DTD/svg11.dtd">
<!-- Creator: CorelDRAW 2019 (64-Bit) -->
<svg xmlns="http://www.w3.org/2000/svg" xml:space="preserve" width="8.26772in" height="11.6929in" version="1.1" style="shape-rendering:geometricPrecision; text-rendering:geometricPrecision; image-rendering:optimizeQuality; fill-rule:evenodd; clip-rule:evenodd"
viewBox="0 0 8267.72 11692.91"
 xmlns:xlink="http://www.w3.org/1999/xlink">
 <defs>
  <style type="text/css">
   <![CDATA[
    .fil2 {fill:#FFF212}
    .fil1 {fill:#00FFA0}
    .fil0 {fill:#53556A}
   ]]>
  </style>
 </defs>
 <g id="Layer_x0020_1">
  <metadata id="CorelCorpID_0Corel-Layer"/>
  <g id="_3042969027424">
   <path class="fil0" d="M4450.98 6794.35c-115.51,0 -221.38,41.26 -303.7,109.83 -7.55,6.29 -18.28,6.29 -25.83,0 -82.32,-68.57 -188.19,-109.83 -303.7,-109.83 -262.27,0 -474.88,212.61 -474.88,474.88 0,262.26 212.61,474.87 474.88,474.87 115.52,0 221.38,-41.26 303.7,-109.83 7.55,-6.29 18.28,-6.29 25.83,0 82.32,68.57 188.19,109.83 303.7,109.83 262.27,0 474.88,-212.61 474.88,-474.87 0,-262.27 -212.61,-474.88 -474.88,-474.88zm-633.22 136.14c-187.08,0 -338.74,151.66 -338.74,338.74 0,187.08 151.66,338.74 338.74,338.74 129.37,0 241.77,-72.53 298.83,-179.13 3.6,-6.73 10.15,-10.66 17.79,-10.66 7.64,0 14.18,3.93 17.78,10.66 57.06,106.6 169.46,179.13 298.83,179.13 187.08,0 338.74,-151.66 338.74,-338.74 0,-187.08 -151.66,-338.74 -338.74,-338.74 -129.36,0 -241.77,72.53 -298.83,179.13 -3.6,6.73 -10.15,10.66 -17.78,10.66 -7.64,0 -14.19,-3.93 -17.79,-10.66 -57.06,-106.6 -169.46,-179.13 -298.83,-179.13z"/>
   <circle class="fil1" cx="4328.12" cy="7265.07" r="78.52"/>
   <circle class="fil2" cx="4584.37" cy="7265.07" r="78.48"/>
   <circle class="fil0" cx="3819.79" cy="7268.2" r="78.48"/>
  </g>
 </g>
</svg>
