<?xml version="1.0" encoding="UTF-8"?>
<!DOCTYPE svg PUBLIC "-//W3C//DTD SVG 1.1//EN" "http://www.w3.org/Graphics/SVG/1.1/DTD/svg11.dtd">
<!-- Creator: CorelDRAW 2019 (64-Bit) -->
<svg xmlns="http://www.w3.org/2000/svg" xml:space="preserve" width="484px" height="295px" version="1.1" style="shape-rendering:geometricPrecision; text-rendering:geometricPrecision; image-rendering:optimizeQuality; fill-rule:evenodd; clip-rule:evenodd"
viewBox="0 0 484 295.12"
 xmlns:xlink="http://www.w3.org/1999/xlink">
 <defs>
  <style type="text/css">
   <![CDATA[
    .fil2 {fill:#FFF212}
    .fil1 {fill:#00FFA0}
    .fil0 {fill:#53556A}
   ]]>
  </style>
 </defs>
 <g id="Layer_x0020_1">
  <metadata id="CorelCorpID_0Corel-Layer"/>
  <g id="_2171949915488">
   <path class="fil0" d="M337.3 4.39c-34.86,0 -66.8,12.45 -91.64,33.14 -2.28,1.9 -5.51,1.9 -7.79,0 -24.84,-20.69 -56.79,-33.14 -91.64,-33.14 -79.14,0 -143.3,64.15 -143.3,143.29 0,79.14 64.16,143.29 143.3,143.29 34.85,0 66.8,-12.45 91.64,-33.14 2.28,-1.9 5.51,-1.9 7.79,0 24.84,20.69 56.78,33.14 91.64,33.14 79.14,0 143.29,-64.15 143.29,-143.29 0,-79.14 -64.15,-143.29 -143.29,-143.29zm-191.07 41.08c-56.45,0 -102.22,45.76 -102.22,102.21 0,56.45 45.77,102.21 102.22,102.21 39.03,0 72.95,-21.88 90.17,-54.05 1.08,-2.03 3.06,-3.22 5.36,-3.22 2.31,0 4.28,1.19 5.37,3.22 17.22,32.17 51.13,54.05 90.17,54.05 56.45,0 102.21,-45.76 102.21,-102.21 0,-56.45 -45.76,-102.21 -102.21,-102.21 -39.04,0 -72.95,21.88 -90.17,54.05 -1.09,2.03 -3.06,3.21 -5.37,3.21 -2.3,0 -4.28,-1.18 -5.36,-3.21 -17.22,-32.17 -51.14,-54.05 -90.17,-54.05z"/>
   <circle class="fil1" cx="300.23" cy="146.42" r="23.69"/>
   <circle class="fil2" cx="377.55" cy="146.42" r="23.68"/>
   <circle class="fil0" cx="146.84" cy="147.37" r="23.68"/>
  </g>
 </g>
</svg>
